<svg width="114" height="114" viewBox="0 0 114 114" fill="none" xmlns="http://www.w3.org/2000/svg">
<path d="M95.0202 44.8617C90.1294 40.7807 81.4692 36.9077 81.4692 36.9077C81.4692 36.9077 80.2497 15.5824 70.2026 12.1899C60.1555 8.79739 46.2582 25.0183 46.2582 25.0183C46.2582 25.0183 35.7646 23.2447 30.6592 23.1295C25.5537 23.0144 18.7575 23.3514 14.0224 27.6469C6.18224 34.7593 20.2244 54.0329 20.2244 54.0329C20.2244 54.0329 12.4356 60.5101 10.2995 66.2864C8.28034 71.7464 7.15995 75.8989 9.61224 81.1764C13.4486 89.4327 22.6352 89.5422 31.6912 88.6316C37.8609 88.0113 46.4073 82.6612 46.4073 82.6612C46.4073 82.6612 49.4186 91.7228 53.4816 95.9894C59.6876 102.506 66.6529 108.401 74.8332 104.647C80.5785 102.01 82.0786 97.3197 83.999 91.3153L84.0405 91.1858C85.8765 85.446 84.5854 75.7651 84.5854 75.7651C84.5854 75.7651 106.545 68.474 104.647 58.2473C103.537 52.2663 99.6889 48.7573 95.0202 44.8617Z" fill="black"/>
<path d="M96.1905 41.3959C91.2996 37.3149 82.6394 33.4419 82.6394 33.4419C82.6394 33.4419 81.42 12.1166 71.3729 8.72409C61.3258 5.33159 47.4285 21.5525 47.4285 21.5525C47.4285 21.5525 36.9349 19.7789 31.8295 19.6637C26.724 19.5486 19.9277 19.8856 15.1926 24.1811C7.3525 31.2935 21.3946 50.5671 21.3946 50.5671C21.3946 50.5671 13.6058 57.0443 11.4697 62.8206C9.45061 68.2806 8.33021 72.4331 10.7825 77.7106C14.6189 85.9668 23.8054 86.0764 32.8615 85.1658C39.0312 84.5454 47.5775 79.1954 47.5775 79.1954C47.5775 79.1954 50.5888 88.257 54.6519 92.5236C60.8579 99.0403 67.8232 104.935 76.0034 101.181C81.7488 98.5442 83.2489 93.8539 85.1693 87.8495L85.2107 87.72C87.0467 81.9802 85.7556 72.2993 85.7556 72.2993C85.7556 72.2993 107.715 65.0082 105.818 54.7815C104.708 48.8005 100.859 45.2915 96.1905 41.3959Z" fill="#F7E1A8"/>
<path d="M45.9369 17.2603C44.9008 17.0982 43.5642 16.8957 42.0995 16.6901C38.8502 16.2341 34.7357 15.7283 31.9196 15.6647C26.8314 15.55 18.5224 15.7598 12.5051 21.2185C10.4729 23.062 9.44901 25.3309 9.0382 27.634C7.78591 30.0035 7.51104 32.6546 7.69544 35.0742C7.95947 38.5387 9.18222 42.0961 10.5266 45.1283C11.6725 47.7128 12.9914 50.1017 14.1264 51.9926C11.8866 54.3856 9.04531 57.8441 7.71806 61.4332C7.25394 62.6882 6.8104 63.9385 6.43698 65.1997C4.41453 70.7086 2.8654 76.1489 5.98473 82.862C8.51868 88.3153 12.9192 91.0597 17.7537 92.2294C22.3718 93.3468 27.5195 93.0713 32.0914 92.6116C35.9234 92.2262 40.1399 90.4574 43.1132 89.0105C43.5411 88.8023 43.9529 88.5958 44.345 88.3946C44.4809 88.7102 44.6239 89.0356 44.7737 89.3682C46.0636 92.2316 48.0582 96.0945 50.585 98.7479C53.7134 102.033 57.4015 105.576 61.5887 107.727C65.9762 109.982 71.0681 110.776 76.5016 108.282C83.7403 104.96 85.7873 98.8642 87.5765 93.2616C88.0406 92.0092 88.4429 90.7482 88.8367 89.5141C88.8843 89.3651 88.9317 89.2165 88.9791 89.0683C88.9791 89.0682 88.9791 89.0681 88.9792 89.068L89.0205 88.9388L89.0206 88.9386C90.1412 85.4354 90.2618 81.0814 90.1741 77.885C92.2205 77.0109 94.8024 75.7966 97.3616 74.2857C100.158 72.6347 103.16 70.495 105.369 67.8798C106.88 66.0911 108.177 63.8766 108.611 61.332C109.684 59.223 110.255 56.7681 109.75 54.0517C108.352 46.5151 103.389 42.1926 98.7532 38.3246C95.98 36.0106 92.2935 33.8661 89.4609 32.3578C88.3096 31.7448 87.2603 31.2165 86.4131 30.802C86.3695 30.4157 86.318 29.9906 86.2574 29.5325C85.971 27.3662 85.4753 24.4091 84.6344 21.3082C83.8012 18.2359 82.583 14.8471 80.7765 11.9178C78.9801 9.00495 76.3775 6.19208 72.6525 4.9343C68.9276 3.67653 65.1525 4.33593 61.9581 5.56354C58.7456 6.79809 55.7224 8.75484 53.1973 10.6932C50.6488 12.6496 48.4619 14.7009 46.9209 16.2502C46.558 16.6151 46.2287 16.9543 45.9369 17.2603Z" stroke="white" stroke-width="8"/>
</svg>
