<svg width="377" height="362" viewBox="0 0 377 362" fill="none" xmlns="http://www.w3.org/2000/svg">
<g filter="url(#filter0_d_26_42)">
<path d="M301.477 95.5001C281.979 87.949 250.977 85 250.977 85C250.977 85 224.788 20 189.977 20C155.165 20 128.977 85 128.977 85C128.977 85 94.4766 90.5 78.4766 95.5001C62.4766 100.5 41.6927 108.68 31.4766 127C14.5614 157.333 78.4766 202.5 78.4766 202.5C78.4766 202.5 61.0541 230.805 60.4766 251C59.9308 270.089 60.807 284.171 73.9766 298C94.5793 319.635 123.267 310.334 150.477 298C169.014 289.597 189.977 264 189.977 264C189.977 264 208.859 289.004 225.977 298C252.122 311.741 279.977 322.753 301.477 302.5C316.577 288.275 316.317 272.123 315.984 251.446L315.977 251C315.659 231.234 301.477 202.5 301.477 202.5C301.477 202.5 362.119 156.793 345.477 127C335.743 109.576 320.088 102.708 301.477 95.5001Z" fill="black"/>
<path d="M301.477 83.5001C281.979 75.949 250.977 73 250.977 73C250.977 73 224.788 8 189.977 8C155.165 8 128.977 73 128.977 73C128.977 73 94.4766 78.5 78.4766 83.5001C62.4766 88.5002 41.6927 96.6801 31.4766 115C14.5614 145.333 78.4766 190.5 78.4766 190.5C78.4766 190.5 61.0541 218.805 60.4766 239C59.9308 258.089 60.807 272.171 73.9766 286C94.5793 307.635 123.267 298.334 150.477 286C169.014 277.597 189.977 252 189.977 252C189.977 252 208.859 277.004 225.977 286C252.122 299.741 279.977 310.753 301.477 290.5C316.577 276.275 316.317 260.123 315.984 239.446L315.977 239C315.659 219.234 301.477 190.5 301.477 190.5C301.477 190.5 362.119 144.793 345.477 115C335.743 97.5755 320.088 90.7081 301.477 83.5001Z" fill="#F7E1A8"/>
<path d="M27.9831 113.052C24.5294 119.245 23.9917 125.834 25.2371 132.301C23.7353 139.24 25.1342 146.41 28.0031 153.159C31.8744 162.266 38.6242 171.147 45.6885 178.832C52.7886 186.556 60.4002 193.28 66.2141 198.059C67.0779 198.769 67.9032 199.437 68.6826 200.06C67.8339 201.751 66.949 203.576 66.0609 205.502C61.6004 215.173 56.7917 227.926 56.4783 238.886C56.3521 243.297 56.2968 247.514 56.4591 251.575C55.9488 270.509 56.8972 285.865 71.08 300.759C82.3888 312.634 96.0044 315.969 110.101 314.723C123.977 313.496 138.483 307.829 152.128 301.643C162.081 297.132 172.376 288.198 179.986 280.698C183.841 276.898 187.101 273.371 189.398 270.792C189.554 270.617 189.706 270.446 189.853 270.28C189.934 270.38 190.017 270.481 190.102 270.584C192.178 273.116 195.129 276.588 198.629 280.351C205.537 287.778 214.921 296.709 224.116 301.541C237.221 308.429 251.236 314.907 264.875 316.954C278.736 319.034 292.394 316.551 304.219 305.412C320.232 290.327 320.324 273.001 320.015 253.361C320.139 249.024 320.067 244.562 319.993 239.976L319.983 239.382L319.976 238.936C319.806 228.331 315.967 215.666 312.357 205.945C311.648 204.036 310.941 202.222 310.262 200.538C311.208 199.74 312.235 198.858 313.327 197.902C318.837 193.078 326.044 186.299 332.745 178.536C339.415 170.811 345.761 161.91 349.343 152.834C351.949 146.233 353.189 139.26 351.777 132.536C352.998 125.962 352.449 119.28 348.969 113.049C338.464 94.2435 321.492 86.9624 302.921 79.7701C292.775 75.8404 279.817 73.1633 269.566 71.4718C264.407 70.6203 259.866 70.0082 256.613 69.6086C255.495 69.4713 254.529 69.359 253.74 69.2706C253.648 69.0582 253.549 68.832 253.443 68.5925C252.64 66.7712 251.457 64.1809 249.93 61.0774C246.88 54.8804 242.431 46.5891 236.853 38.272C231.291 29.9794 224.507 21.5102 216.747 15.0768C209.001 8.65572 199.959 4 189.977 4C179.994 4 170.952 8.65572 163.206 15.0768C155.446 21.5102 148.662 29.9794 143.1 38.272C137.522 46.5891 133.074 54.8804 130.024 61.0774C128.496 64.1809 127.314 66.7712 126.51 68.5925C126.381 68.8844 126.262 69.1566 126.153 69.4081C125.235 69.5601 124.054 69.7575 122.664 69.9943C119.163 70.5909 114.327 71.4387 108.987 72.444C98.3739 74.4418 85.5348 77.1036 77.2835 79.6822C61.3005 84.677 39.0423 93.2199 27.9831 113.052Z" stroke="white" stroke-width="8"/>
</g>
<defs>
<filter id="filter0_d_26_42" x="0.625681" y="0" width="375.743" height="361.621" filterUnits="userSpaceOnUse" color-interpolation-filters="sRGB">
<feFlood flood-opacity="0" result="BackgroundImageFix"/>
<feColorMatrix in="SourceAlpha" type="matrix" values="0 0 0 0 0 0 0 0 0 0 0 0 0 0 0 0 0 0 127 0" result="hardAlpha"/>
<feOffset dy="20"/>
<feGaussianBlur stdDeviation="10"/>
<feComposite in2="hardAlpha" operator="out"/>
<feColorMatrix type="matrix" values="0 0 0 0 0 0 0 0 0 0 0 0 0 0 0 0 0 0 0.25 0"/>
<feBlend mode="normal" in2="BackgroundImageFix" result="effect1_dropShadow_26_42"/>
<feBlend mode="normal" in="SourceGraphic" in2="effect1_dropShadow_26_42" result="shape"/>
</filter>
</defs>
</svg>
